<?xml version="1.0" encoding="UTF-8" standalone="no"?>
<!-- Created with Inkscape (http://www.inkscape.org/) -->

<svg
   xmlns:dc="http://purl.org/dc/elements/1.1/"
   xmlns:cc="http://creativecommons.org/ns#"
   xmlns:rdf="http://www.w3.org/1999/02/22-rdf-syntax-ns#"
   xmlns:svg="http://www.w3.org/2000/svg"
   xmlns="http://www.w3.org/2000/svg"
   xmlns:sodipodi="http://sodipodi.sourceforge.net/DTD/sodipodi-0.dtd"
   xmlns:inkscape="http://www.inkscape.org/namespaces/inkscape"
   width="512"
   height="256"
   viewBox="0 0 511.99999 256"
   id="svg2"
   version="1.1"
   inkscape:version="0.91 r13725"
   sodipodi:docname="logo.svg">
  <defs
     id="defs4" />
  <sodipodi:namedview
     id="base"
     pagecolor="#ffffff"
     bordercolor="#666666"
     borderopacity="1.0"
     inkscape:pageopacity="0.0"
     inkscape:pageshadow="2"
     inkscape:zoom="1.3338306"
     inkscape:cx="245.06831"
     inkscape:cy="150.32632"
     inkscape:document-units="px"
     inkscape:current-layer="layer1"
     showgrid="false"
     inkscape:window-width="1366"
     inkscape:window-height="715"
     inkscape:window-x="-8"
     inkscape:window-y="-8"
     inkscape:window-maximized="1"
     units="px"
     borderlayer="true"
     inkscape:showpageshadow="false"
     inkscape:object-nodes="true"
     inkscape:snap-text-baseline="true">
    <inkscape:grid
       type="xygrid"
       id="grid4137" />
  </sodipodi:namedview>
  <metadata
     id="metadata7">
    <rdf:RDF>
      <cc:Work
         rdf:about="">
        <dc:format>image/svg+xml</dc:format>
        <dc:type
           rdf:resource="http://purl.org/dc/dcmitype/StillImage" />
        <dc:title></dc:title>
      </cc:Work>
    </rdf:RDF>
  </metadata>
  <g
     inkscape:label="Layer 1"
     inkscape:groupmode="layer"
     id="layer1"
     transform="translate(0,-796.36216)">
    <g
       style="font-style:normal;font-weight:normal;font-size:244.43722534px;line-height:125%;font-family:sans-serif;letter-spacing:0px;word-spacing:0px;fill:#4d4d4d;fill-opacity:1;stroke:none;stroke-width:1px;stroke-linecap:butt;stroke-linejoin:miter;stroke-opacity:1"
       id="text4133">
      <path
         d="m 20.789251,953.80029 0,-63.17033 q 0,-14.50862 10.271596,-24.78022 10.271597,-10.14321 24.651832,-10.14321 14.508631,0 24.780227,10.14321 10.143202,10.2716 10.143202,24.78022 l 0,63.17033 -69.846857,0 z M 108.7398,890.62996 q 0,-21.95553 -15.535795,-37.49133 -15.535788,-15.53579 -37.491326,-15.53579 -21.955538,0 -37.491328,15.53579 -15.5357891,15.5358 -15.5357891,37.49133 l 0,120.17774 q 0,3.7235 2.6962937,6.2913 2.5678988,2.6963 6.2913534,2.6963 3.851848,0 6.419747,-2.6963 2.696295,-2.5678 2.696295,-6.2913 l 0,-38.90372 69.846857,0 0,38.90372 q 0,3.7235 2.696298,6.2913 2.567897,2.6963 6.291351,2.6963 3.851843,0 6.419743,-2.6963 2.6963,-2.5678 2.6963,-6.2913 l 0,-120.17774 z"
         style="font-style:normal;font-variant:normal;font-weight:normal;font-stretch:normal;font-family:'Cronus Round';-inkscape-font-specification:'Cronus Round';fill:#4d4d4d"
         id="path4148"
         inkscape:connector-curvature="0" />
      <path
         d="m 193.09528,979.60767 c 0,6.50535 -2.26831,12.06913 -6.80492,16.69139 -4.62222,4.53654 -10.18601,6.80484 -16.69135,6.80484 -6.50534,0 -12.02633,-2.2683 -16.56295,-6.80484 -4.62222,-4.62226 -6.93333,-10.18604 -6.93333,-16.69139 l 0,-33.51108 c 0,-6.50534 2.31111,-12.06913 6.93333,-16.69135 4.53662,-4.53662 10.05761,-6.80493 16.56295,-6.80493 6.50534,0 12.06913,2.26831 16.69135,6.80493 4.53661,4.62222 6.80492,10.18601 6.80492,16.69135 z m -46.99255,34.28153 c 7.10452,4.8789 14.93661,7.3185 23.49628,7.3185 11.46995,0 21.27076,-4.0659 29.40244,-12.1976 8.13168,-8.1317 12.19752,-17.93249 12.19752,-29.40243 l 0,-33.51108 c 0,-11.46995 -4.06584,-21.27077 -12.19752,-29.40245 -8.13168,-8.13167 -17.93249,-12.19752 -29.40244,-12.19752 -11.46995,0 -21.27077,4.06585 -29.40245,12.19752 -8.13167,8.13168 -12.19752,17.9325 -12.19752,29.40245 l 0,95.38331 c 0,2.4823 0.89877,4.5795 2.69629,6.2914 1.71194,1.7975 3.85186,2.6963 6.41975,2.6963 2.4823,0 4.57942,-0.8988 6.29135,-2.6963 1.79754,-1.7119 2.6963,-3.8091 2.6963,-6.2914 z"
         style="font-style:normal;font-variant:normal;font-weight:normal;font-stretch:normal;font-family:'Cronus Round';-inkscape-font-specification:'Cronus Round';fill:#4d4d4d"
         id="path4150"
         inkscape:connector-curvature="0"
         sodipodi:nodetypes="scsssssscsscssssssssscscsc" />
      <path
         d="m 248.81869,915.025 q 0,-3.85184 -2.69629,-6.41974 -2.56791,-2.6963 -6.41975,-2.6963 -3.72346,0 -6.29135,2.6963 -2.6963,2.5679 -2.6963,6.41974 l 0,95.7827 q 0,3.7235 2.6963,6.2913 2.56789,2.6963 6.29135,2.6963 3.85184,0 6.41975,-2.6963 2.69629,-2.5678 2.69629,-6.2913 l 0,-95.7827 z m -1.54074,-42.11355 q -3.08148,-3.08146 -7.5753,-3.08146 -4.49382,0 -7.44691,3.08146 -3.08148,3.08148 -3.08148,7.57531 0,4.36543 3.08148,7.44691 2.95309,3.08147 7.44691,3.08147 4.49382,0 7.5753,-3.08147 3.08148,-3.08148 3.08148,-7.44691 0,-4.49383 -3.08148,-7.57531 z"
         style="font-style:normal;font-variant:normal;font-weight:normal;font-stretch:normal;font-family:'Cronus Round';-inkscape-font-specification:'Cronus Round';fill:#4d4d4d"
         id="path4152"
         inkscape:connector-curvature="0" />
      <path
         d="m 327.39641,1016.9706 c 1.71193,1.7975 3.80905,2.7391 6.29136,2.8247 2.4823,0.086 4.62222,-0.7276 6.41975,-2.4395 1.88313,-1.7119 2.86749,-3.809 2.95308,-6.2913 0.0856,-2.4823 -0.72758,-4.6223 -2.43951,-6.4198 l -41.72835,-48.7901 37.61971,-37.36294 c 1.79753,-1.79752 2.6963,-3.93743 2.6963,-6.41974 0,-2.4823 -0.89877,-4.62222 -2.6963,-6.41975 -1.79753,-1.71193 -3.93744,-2.5679 -6.41975,-2.5679 -2.48229,0 -4.62221,0.85597 -6.41974,2.5679 l -37.36294,37.10614 0,-64.82955 c 0,-2.4823 -0.89876,-4.62222 -2.69628,-6.41975 -1.71194,-1.71193 -3.85186,-2.5679 -6.41976,-2.5679 -2.4823,0 -4.57942,0.85597 -6.29135,2.5679 -1.79753,1.79753 -2.6963,3.93745 -2.6963,6.41975 l 0,132.75044 c 0,2.4823 0.89877,4.6223 2.6963,6.4198 1.71193,1.7119 3.80905,2.5679 6.29135,2.5679 2.5679,0 4.70782,-0.856 6.41976,-2.5679 1.79752,-1.7975 2.69628,-3.9375 2.69628,-6.4198 l 0,-41.8567 z"
         style="font-style:normal;font-variant:normal;font-weight:normal;font-stretch:normal;font-family:'Cronus Round';-inkscape-font-specification:'Cronus Round';fill:#4d4d4d"
         id="path4154"
         inkscape:connector-curvature="0"
         sodipodi:nodetypes="cscscccscsccsssssssssscc" />
      <path
         d="m 420.09757,979.47928 q 0,9.75801 -6.93332,16.69133 -6.80494,6.80499 -16.56295,6.80499 -9.75803,0 -16.69135,-6.80499 -6.80494,-6.93332 -6.80494,-16.69133 l 0,-33.51108 q 0,-9.75803 6.80494,-16.69135 6.93332,-6.93333 16.69135,-6.93333 9.75801,0 16.56295,6.93333 6.93332,6.93332 6.93332,16.69135 l 0,33.51108 z M 396.6013,904.36822 q -17.20493,0 -29.40245,12.19752 -12.19752,12.19752 -12.19752,29.40246 l 0,33.51108 q 0,17.2049 12.19752,29.40252 12.19752,12.1974 29.40245,12.1974 17.20492,0 29.40244,-12.1974 12.19752,-12.19762 12.19752,-29.40252 l 0,-33.51108 q 0,-17.20494 -12.19752,-29.40246 -12.19752,-12.19752 -29.40244,-12.19752 z"
         style="font-style:normal;font-variant:normal;font-weight:normal;font-stretch:normal;font-family:'Cronus Round';-inkscape-font-specification:'Cronus Round';fill:#4d4d4d"
         id="path4156"
         inkscape:connector-curvature="0" />
    </g>
    <path
       style="fill:#00980e;fill-opacity:1;fill-rule:evenodd;stroke:none;stroke-width:1px;stroke-linecap:butt;stroke-linejoin:miter;stroke-opacity:1"
       d="m 471.74241,1027.1821 36.93361,0 0,-221.60175 -36.93361,0 z"
       id="path4141"
       inkscape:connector-curvature="0" />
    <path
       style="fill:#00bc11;fill-opacity:1;fill-rule:evenodd;stroke:none;stroke-width:1px;stroke-linecap:butt;stroke-linejoin:miter;stroke-opacity:1"
       d="m 471.74241,879.44757 36.93361,0 0,73.86722 -36.93361,0 z"
       id="path4143"
       inkscape:connector-curvature="0" />
    <path
       style="fill:#00bc11;fill-opacity:1;fill-rule:evenodd;stroke:none;stroke-width:1px;stroke-linecap:butt;stroke-linejoin:miter;stroke-opacity:1"
       d="m 471.74241,879.44757 c -26.116,-26.11601 -52.23202,-52.23201 -78.34802,-26.11601 26.116,26.11601 52.23202,52.23202 78.34802,26.11601 z"
       id="path4145"
       inkscape:connector-curvature="0"
       sodipodi:nodetypes="ccc" />
  </g>
</svg>
